<svg width="210" height="203" viewBox="0 0 210 203" fill="none" xmlns="http://www.w3.org/2000/svg">
<path d="M39 72L39 178C39 186.284 45.7157 193 54 193L156 193C164.284 193 171 186.284 171 178L171 72" stroke="#787676" stroke-width="20"/>
<path d="M57.7763 77.4531L51.6478 70.3771L44.1831 76.0258L40.8243 78.5674C30.2777 86.5482 15.3144 77.9655 16.8783 64.8323L16.9276 64.4185L23.1658 27.1944C24.7806 17.5587 33.1208 10.5 42.8908 10.5H168.823C178.822 10.5 187.284 17.884 188.639 27.7905L193.618 64.205C194.907 76.8681 180.221 84.8076 170.327 76.7378L169.729 76.2506L162.893 70.6749L156.508 76.7626L144.416 88.2923C138.616 93.8226 129.493 93.8167 123.7 88.279L111.662 76.7715L104.866 70.2751L97.963 76.6575L86.6414 87.1253C80.4186 92.8789 70.6683 92.3382 65.1197 85.9318L57.7763 77.4531Z" stroke="#787676" stroke-width="20"/>
</svg>
